<svg width="30" height="32" viewBox="0 0 40 42" fill="none" xmlns="http://www.w3.org/2000/svg">
    <path d="M19.7553 5.8496C27.2364 5.79659 33.3465 11.8147 33.3997 19.2952L33.4008 19.4447L33.3862 19.5922L32.7437 25.8088C32.5186 27.9863 31.3982 29.9722 29.6516 31.2918L25.5407 34.3982C23.921 35.6218 21.9493 36.2909 19.9193 36.3053C17.8839 36.3196 15.8987 35.6701 14.2655 34.4556L9.58933 30.9789C8.40343 30.0969 7.33244 28.7669 6.9723 27.013C6.66339 25.5078 6.3281 23.0626 6.30274 19.4873C6.24998 12.0069 12.2744 5.9029 19.7553 5.8496ZM19.7744 8.55265C13.785 8.59539 8.96363 13.4822 9.0058 19.4681C9.03001 22.8827 9.35038 25.1509 9.62085 26.4688C9.81762 27.4273 10.4175 28.2261 11.2029 28.8102L15.8781 32.2869C16.967 33.0966 18.2765 33.5526 19.6287 33.5983L19.9002 33.6022C21.2581 33.5926 22.5796 33.1722 23.6916 32.4005L23.9111 32.2417L28.022 29.1354C29.0985 28.322 29.8129 27.1235 30.0199 25.7979L30.0542 25.531L30.6967 19.3144C30.654 13.3284 25.7641 8.51021 19.7744 8.55265ZM11.7158 17.9547C13.3073 17.0218 15.9422 18.5561 17.6016 21.3818C19.2612 24.2081 19.3166 27.2563 17.725 28.1897C16.1335 29.123 13.4978 27.5888 11.8383 24.7626C10.1788 21.9363 10.1243 18.8881 11.7158 17.9547ZM22.2978 21.3486C23.917 18.4996 26.5299 16.9282 28.1344 17.8384C29.739 18.7491 29.7277 21.7978 28.1084 24.6473C26.4891 27.4968 23.8754 29.0682 22.2708 28.1575C20.6662 27.2468 20.6784 24.1981 22.2978 21.3486Z" fill="url(#paint0_linear_6140_192677)"/>
    <path d="M19.7465 4.52774C27.8597 4.47025 34.4859 10.9974 34.5435 19.1098L34.5446 19.2582L34.53 19.4068L33.8199 26.2782C33.5793 28.6068 32.3815 30.7313 30.5137 32.1426L25.9686 35.5762C24.2268 36.8922 22.1064 37.6115 19.9234 37.6269C17.7354 37.6423 15.6014 36.9442 13.8457 35.6387L8.6767 31.7953C7.4077 30.8516 6.27273 29.437 5.89189 27.5816C5.55444 25.9373 5.18543 23.2535 5.15753 19.318C5.10015 11.2058 11.6334 4.58552 19.7465 4.52774ZM19.7656 7.2308C13.144 7.27801 7.8138 12.6812 7.86059 19.2989L7.86941 19.9922C7.93143 23.3829 8.26014 25.6714 8.54044 27.0374C8.75789 28.0969 9.42112 28.9799 10.2893 29.6257L15.4583 33.469C16.6623 34.3643 18.1101 34.8699 19.6054 34.9201L19.9042 34.9239C21.4056 34.9132 22.8667 34.4485 24.0961 33.5953L24.339 33.4198L28.8841 29.9851C30.1534 29.0259 30.9669 27.5824 31.1303 26.0004L31.8405 19.1289C31.7935 12.5111 26.3875 7.18388 19.7656 7.2308ZM10.8547 17.6253C12.6141 16.5935 15.5275 18.29 17.3621 21.4142C19.1968 24.5387 19.258 27.9089 17.4985 28.9408C15.7391 29.9723 12.8256 28.276 10.991 25.1518C9.15632 22.0273 9.0952 18.6572 10.8547 17.6253ZM22.5534 21.3774C24.3436 18.2276 27.2327 16.4901 29.0066 17.4966C30.7805 18.5035 30.7671 21.8741 28.9769 25.0244C27.1867 28.1743 24.2976 29.9118 22.5238 28.9052C20.7498 27.8983 20.7632 24.5276 22.5534 21.3774Z" fill="url(#paint1_linear_6140_192677)"/>
    <mask id="path-3-inside-1_6140_192677" fill="white">
        <path d="M19.7621 7.07573C26.6474 7.02719 32.271 12.5668 32.3199 19.4519L32.3209 19.6003L32.3064 19.7489L31.7278 25.3459C31.5175 27.381 30.4705 29.2375 28.8383 30.471L25.1363 33.2688C23.6315 34.4057 21.7995 35.0268 19.9134 35.0402C18.022 35.0535 16.1766 34.4501 14.6589 33.3215L10.4482 30.1911C9.34018 29.3671 8.32949 28.1155 7.98902 26.4565C7.70704 25.0824 7.40302 22.8639 7.38007 19.6286C7.33138 12.7435 12.8769 7.12476 19.7621 7.07573ZM19.7813 9.77878C14.3875 9.81725 10.045 14.2188 10.0831 19.6095L10.1037 20.7138C10.1767 23.1812 10.4235 24.8747 10.6366 25.9133C10.8137 26.7764 11.3545 27.4954 12.0617 28.0214L16.2725 31.1518C17.2532 31.8811 18.4322 32.293 19.6501 32.334L19.8943 32.3371C21.1173 32.3284 22.3071 31.9495 23.3086 31.2543L23.5068 31.1113L27.2087 28.3145C28.2427 27.5331 28.9051 26.3568 29.0383 25.0681L29.6168 19.4711C29.5797 14.2487 25.4457 10.0127 20.2833 9.78792L19.7813 9.77878ZM12.5237 18.2464C13.957 17.4061 16.3296 18.7879 17.8241 21.333C19.3185 23.8781 19.3681 26.6227 17.9349 27.4632C16.5016 28.3033 14.1289 26.9215 12.6346 24.3767C11.14 21.8315 11.0905 19.087 12.5237 18.2464ZM22.0525 21.303C23.5107 18.7369 25.8645 17.3215 27.3095 18.1417C28.7544 18.9619 28.7438 21.7068 27.2856 24.2729C25.8273 26.839 23.4735 28.2544 22.0285 27.4342C20.5836 26.614 20.5944 23.869 22.0525 21.303Z"/>
    </mask>
    <path d="M19.7621 7.07573C26.6474 7.02719 32.271 12.5668 32.3199 19.4519L32.3209 19.6003L32.3064 19.7489L31.7278 25.3459C31.5175 27.381 30.4705 29.2375 28.8383 30.471L25.1363 33.2688C23.6315 34.4057 21.7995 35.0268 19.9134 35.0402C18.022 35.0535 16.1766 34.4501 14.6589 33.3215L10.4482 30.1911C9.34018 29.3671 8.32949 28.1155 7.98902 26.4565C7.70704 25.0824 7.40302 22.8639 7.38007 19.6286C7.33138 12.7435 12.8769 7.12476 19.7621 7.07573ZM19.7813 9.77878C14.3875 9.81725 10.045 14.2188 10.0831 19.6095L10.1037 20.7138C10.1767 23.1812 10.4235 24.8747 10.6366 25.9133C10.8137 26.7764 11.3545 27.4954 12.0617 28.0214L16.2725 31.1518C17.2532 31.8811 18.4322 32.293 19.6501 32.334L19.8943 32.3371C21.1173 32.3284 22.3071 31.9495 23.3086 31.2543L23.5068 31.1113L27.2087 28.3145C28.2427 27.5331 28.9051 26.3568 29.0383 25.0681L29.6168 19.4711C29.5797 14.2487 25.4457 10.0127 20.2833 9.78792L19.7813 9.77878ZM12.5237 18.2464C13.957 17.4061 16.3296 18.7879 17.8241 21.333C19.3185 23.8781 19.3681 26.6227 17.9349 27.4632C16.5016 28.3033 14.1289 26.9215 12.6346 24.3767C11.14 21.8315 11.0905 19.087 12.5237 18.2464ZM22.0525 21.303C23.5107 18.7369 25.8645 17.3215 27.3095 18.1417C28.7544 18.9619 28.7438 21.7068 27.2856 24.2729C25.8273 26.839 23.4735 28.2544 22.0285 27.4342C20.5836 26.614 20.5944 23.869 22.0525 21.303Z" fill="white"/>
    <path d="M19.7621 7.07573L19.7443 4.54206L19.7441 4.54206L19.7621 7.07573ZM32.3199 19.4519L34.8535 19.4339L34.8535 19.4339L32.3199 19.4519ZM32.3209 19.6003L34.8426 19.8477L34.8555 19.7154L34.8546 19.5824L32.3209 19.6003ZM32.3064 19.7489L34.8267 20.0094L34.828 19.9963L32.3064 19.7489ZM31.7278 25.3459L29.2075 25.0854L29.2075 25.0855L31.7278 25.3459ZM28.8383 30.471L27.3107 28.4495L27.3106 28.4496L28.8383 30.471ZM25.1363 33.2688L26.6638 35.2904L26.664 35.2902L25.1363 33.2688ZM19.9134 35.0402L19.9312 37.5739L19.9315 37.5739L19.9134 35.0402ZM14.6589 33.3215L16.1708 31.2883L16.1706 31.2882L14.6589 33.3215ZM10.4482 30.1911L8.93611 32.2242L8.93649 32.2245L10.4482 30.1911ZM7.98902 26.4565L5.50701 26.9658L5.50702 26.9659L7.98902 26.4565ZM7.38007 19.6286L4.84641 19.6465L4.84641 19.6466L7.38007 19.6286ZM19.7813 9.77878L19.8274 7.24548L19.7953 7.24489L19.7632 7.24512L19.7813 9.77878ZM10.0831 19.6095L7.54946 19.6274L7.54957 19.642L7.54984 19.6565L10.0831 19.6095ZM10.1037 20.7138L7.57036 20.7609L7.57062 20.7749L7.57103 20.7889L10.1037 20.7138ZM10.6366 25.9133L8.1546 26.4227L8.1546 26.4227L10.6366 25.9133ZM12.0617 28.0214L10.5496 30.0545L10.5501 30.0548L12.0617 28.0214ZM16.2725 31.1518L17.7844 29.1186L17.7842 29.1185L16.2725 31.1518ZM19.6501 32.334L19.5649 34.8663L19.5911 34.8672L19.6174 34.8675L19.6501 32.334ZM19.8943 32.3371L19.8616 34.8707L19.887 34.871L19.9124 34.8708L19.8943 32.3371ZM23.3086 31.2543L24.7534 33.3358L24.7723 33.3226L24.7911 33.3091L23.3086 31.2543ZM23.5068 31.1113L24.9893 33.1661L25.0119 33.1498L25.0341 33.133L23.5068 31.1113ZM27.2087 28.3145L28.7361 30.3361L28.7363 30.336L27.2087 28.3145ZM29.0383 25.0681L26.518 24.8076L26.518 24.8076L29.0383 25.0681ZM29.6168 19.4711L32.1371 19.7316L32.1515 19.5927L32.1505 19.4531L29.6168 19.4711ZM20.2833 9.78792L20.3935 7.25659L20.3615 7.2552L20.3294 7.25461L20.2833 9.78792ZM12.5237 18.2464L11.2422 16.0607L11.2419 16.0609L12.5237 18.2464ZM17.8241 21.333L20.009 20.0501L20.009 20.05L17.8241 21.333ZM17.9349 27.4632L19.2161 29.6491L19.2167 29.6488L17.9349 27.4632ZM12.6346 24.3767L10.4496 25.6596L10.4497 25.6597L12.6346 24.3767ZM22.0525 21.303L19.8496 20.0512L19.8495 20.0513L22.0525 21.303ZM27.3095 18.1417L28.5604 15.9382L28.5602 15.9381L27.3095 18.1417ZM27.2856 24.2729L29.4884 25.5247L29.4884 25.5247L27.2856 24.2729ZM22.0285 27.4342L20.7778 29.6377L20.7778 29.6377L22.0285 27.4342ZM19.7621 7.07573L19.78 9.60939C25.2674 9.57071 29.7473 13.9854 29.7862 19.4699L32.3199 19.4519L34.8535 19.4339C34.7947 11.1482 28.0274 4.48367 19.7443 4.54206L19.7621 7.07573ZM32.3199 19.4519L29.7862 19.4699L29.7873 19.6183L32.3209 19.6003L34.8546 19.5824L34.8535 19.4339L32.3199 19.4519ZM32.3209 19.6003L29.7993 19.353L29.7847 19.5015L32.3064 19.7489L34.828 19.9963L34.8426 19.8477L32.3209 19.6003ZM32.3064 19.7489L29.7861 19.4884L29.2075 25.0854L31.7278 25.3459L34.2481 25.6064L34.8267 20.0094L32.3064 19.7489ZM31.7278 25.3459L29.2075 25.0855C29.0695 26.4209 28.3823 27.6397 27.3107 28.4495L28.8383 30.471L30.3659 32.4924C32.5587 30.8353 33.9656 28.3411 34.2481 25.6063L31.7278 25.3459ZM28.8383 30.471L27.3106 28.4496L23.6087 31.2474L25.1363 33.2688L26.664 35.2902L30.366 32.4924L28.8383 30.471ZM25.1363 33.2688L23.6089 31.2472C22.5394 32.0553 21.2368 32.497 19.8954 32.5065L19.9134 35.0402L19.9315 37.5739C22.3621 37.5566 24.7236 36.7562 26.6638 35.2904L25.1363 33.2688ZM19.9134 35.0402L19.8956 32.5065C18.5546 32.516 17.2463 32.0881 16.1708 31.2883L14.6589 33.3215L13.147 35.3548C15.107 36.8121 17.4894 37.591 19.9312 37.5739L19.9134 35.0402ZM14.6589 33.3215L16.1706 31.2882L11.9598 28.1578L10.4482 30.1911L8.93649 32.2245L13.1472 35.3549L14.6589 33.3215ZM10.4482 30.1911L11.9602 28.158C11.2262 27.6121 10.6581 26.8586 10.471 25.9471L7.98902 26.4565L5.50702 26.9659C6.00089 29.3723 7.45417 31.1221 8.93611 32.2242L10.4482 30.1911ZM7.98902 26.4565L10.471 25.9472C10.225 24.7484 9.93562 22.6953 9.91374 19.6107L7.38007 19.6286L4.84641 19.6466C4.87043 23.0325 5.18906 25.4165 5.50701 26.9658L7.98902 26.4565ZM7.38007 19.6286L9.91374 19.6107C9.87495 14.1264 14.2926 9.64847 19.7802 9.60939L19.7621 7.07573L19.7441 4.54206C11.4612 4.60105 4.78781 11.3606 4.84641 19.6465L7.38007 19.6286ZM19.7813 9.77878L19.7632 7.24512C12.9717 7.29355 7.50146 12.836 7.54946 19.6274L10.0831 19.6095L12.6168 19.5916C12.5886 15.6017 15.8032 12.3409 19.7994 12.3124L19.7813 9.77878ZM10.0831 19.6095L7.54984 19.6565L7.57036 20.7609L10.1037 20.7138L12.6369 20.6668L12.6164 19.5624L10.0831 19.6095ZM10.1037 20.7138L7.57103 20.7889C7.64809 23.3905 7.90985 25.2301 8.1546 26.4227L10.6366 25.9133L13.1186 25.404C12.9371 24.5194 12.7054 22.9718 12.6363 20.6388L10.1037 20.7138ZM10.6366 25.9133L8.1546 26.4227C8.48492 28.0322 9.46737 29.2496 10.5496 30.0545L12.0617 28.0214L13.5738 25.9884C13.2416 25.7413 13.1426 25.5207 13.1186 25.4039L10.6366 25.9133ZM12.0617 28.0214L10.5501 30.0548L14.7608 33.1852L16.2725 31.1518L17.7842 29.1185L13.5734 25.9881L12.0617 28.0214ZM16.2725 31.1518L14.7606 33.1851C16.155 34.2219 17.8317 34.808 19.5649 34.8663L19.6501 32.334L19.7353 29.8017C19.0327 29.7781 18.3515 29.5403 17.7844 29.1186L16.2725 31.1518ZM19.6501 32.334L19.6174 34.8675L19.8616 34.8707L19.8943 32.3371L19.927 29.8036L19.6828 29.8005L19.6501 32.334ZM19.8943 32.3371L19.9124 34.8708C21.6473 34.8584 23.3341 34.3209 24.7534 33.3358L23.3086 31.2543L21.8637 29.1729C21.2801 29.578 20.5873 29.7984 19.8762 29.8035L19.8943 32.3371ZM23.3086 31.2543L24.7911 33.3091L24.9893 33.1661L23.5068 31.1113L22.0243 29.0566L21.826 29.1996L23.3086 31.2543ZM23.5068 31.1113L25.0341 33.133L28.7361 30.3361L27.2087 28.3145L25.6814 26.2929L21.9794 29.0897L23.5068 31.1113ZM27.2087 28.3145L28.7363 30.336C30.3318 29.1302 31.3533 27.3158 31.5586 25.3285L29.0383 25.0681L26.518 24.8076C26.457 25.3978 26.1536 25.936 25.6811 26.2931L27.2087 28.3145ZM29.0383 25.0681L31.5586 25.3286L32.1371 19.7316L29.6168 19.4711L27.0965 19.2106L26.518 24.8076L29.0383 25.0681ZM29.6168 19.4711L32.1505 19.4531C32.1037 12.8732 26.8962 7.5397 20.3935 7.25659L20.2833 9.78792L20.1731 12.3193C23.9953 12.4857 27.0557 15.6241 27.0832 19.4891L29.6168 19.4711ZM20.2833 9.78792L20.3294 7.25461L19.8274 7.24548L19.7813 9.77878L19.7352 12.3121L20.2372 12.3212L20.2833 9.78792ZM12.5237 18.2464L13.8052 20.4322C13.3828 20.6798 13.2798 20.3626 13.8759 20.7097C14.3936 21.0112 15.0706 21.6477 15.6391 22.6159L17.8241 21.333L20.009 20.05C19.083 18.4732 17.8265 17.1462 16.426 16.3307C15.1039 15.5607 13.0979 14.9727 11.2422 16.0607L12.5237 18.2464ZM17.8241 21.333L15.6391 22.6159C16.2076 23.5841 16.4332 24.4849 16.444 25.0831C16.4565 25.7718 16.23 25.5258 16.6531 25.2776L17.9349 27.4632L19.2167 29.6488C21.073 28.5601 21.5383 26.5215 21.5106 24.9915C21.4814 23.3711 20.9349 21.6271 20.009 20.0501L17.8241 21.333ZM17.9349 27.4632L16.6536 25.2773C17.076 25.0297 17.1789 25.347 16.5827 24.9998C16.0649 24.6982 15.3879 24.0617 14.8194 23.0937L12.6346 24.3767L10.4497 25.6597C11.3756 27.2365 12.6321 28.5633 14.0326 29.3788C15.3546 30.1487 17.3605 30.7368 19.2161 29.6491L17.9349 27.4632ZM12.6346 24.3767L14.8195 23.0937C14.251 22.1255 14.0254 21.2247 14.0146 20.6265C14.0021 19.9379 14.2286 20.1839 13.8055 20.432L12.5237 18.2464L11.2419 16.0609C9.38566 17.1495 8.92027 19.188 8.94792 20.7181C8.97721 22.3386 9.52364 24.0826 10.4496 25.6596L12.6346 24.3767ZM22.0525 21.303L24.2553 22.5549C24.81 21.5788 25.4781 20.9327 25.9917 20.6238C26.5832 20.2681 26.4847 20.5869 26.0588 20.3452L27.3095 18.1417L28.5602 15.9381C26.6893 14.8762 24.6914 15.4926 23.3802 16.2811C21.9912 17.1164 20.7532 18.4611 19.8496 20.0512L22.0525 21.303ZM27.3095 18.1417L26.0586 20.3451C25.6322 20.103 25.8552 19.854 25.8525 20.5427C25.8502 21.141 25.6374 22.0449 25.0827 23.021L27.2856 24.2729L29.4884 25.5247C30.392 23.9347 30.9136 22.1832 30.9199 20.5624C30.9259 19.0322 30.4317 17.0006 28.5604 15.9382L27.3095 18.1417ZM27.2856 24.2729L25.0827 23.021C24.528 23.997 23.86 24.6431 23.3463 24.952C22.7548 25.3077 22.8533 24.9889 23.2792 25.2307L22.0285 27.4342L20.7778 29.6377C22.6487 30.6997 24.6466 30.0832 25.9578 29.2947C27.3468 28.4594 28.5848 27.1148 29.4884 25.5247L27.2856 24.2729ZM22.0285 27.4342L23.2793 25.2307C23.7059 25.4729 23.4829 25.7221 23.4856 25.0332C23.4879 24.4349 23.7008 23.5309 24.2554 22.5548L22.0525 21.303L19.8495 20.0513C18.9461 21.6412 18.4245 23.3927 18.4182 25.0134C18.4122 26.5435 18.9062 28.5754 20.7778 29.6377L22.0285 27.4342Z" fill="black" mask="url(#path-3-inside-1_6140_192677)"/>
    <path d="M19.7842 9.77918C14.3901 9.8174 10.0483 14.2186 10.0865 19.6094C10.1083 22.6848 10.3965 24.7268 10.6401 25.9137C10.8173 26.777 11.3576 27.4957 12.0651 28.0218L16.2756 31.1527C17.3218 31.9306 18.5933 32.3465 19.8973 32.3373C21.202 32.3281 22.4689 31.8983 23.5097 31.1119L27.2116 28.3148C28.2458 27.5334 28.9087 26.3577 29.0418 25.0689L29.6202 19.471C29.582 14.0801 25.1783 9.74096 19.7842 9.77918Z" fill="white"/>
    <path fill-rule="evenodd" clip-rule="evenodd" d="M17.8266 21.3325C19.3211 23.8777 19.3707 26.6224 17.9375 27.463C16.5043 28.3036 14.1309 26.9217 12.6364 24.3765C11.1419 21.8313 11.0922 19.0866 12.5254 18.246C13.9587 17.4054 16.3321 18.7873 17.8266 21.3325ZM22.0308 27.434C20.5858 26.6138 20.5966 23.8687 22.0549 21.3025C23.5131 18.7364 25.8667 17.3211 27.3117 18.1412C28.7567 18.9614 28.7459 21.7066 27.2877 24.2727C25.8294 26.8388 23.4758 28.2542 22.0308 27.434Z" fill="black"/>
    <defs>
        <linearGradient id="paint0_linear_6140_192677" x1="19.7553" y1="5.8496" x2="19.9711" y2="36.3049" gradientUnits="userSpaceOnUse">
            <stop stop-color="#CAFE5C"/>
            <stop offset="0.567308" stop-color="#B968F8"/>
            <stop offset="1" stop-color="#9BC5F2"/>
        </linearGradient>
        <linearGradient id="paint1_linear_6140_192677" x1="15.7407" y1="4.55613" x2="24.0137" y2="37.5914" gradientUnits="userSpaceOnUse">
            <stop stop-color="#2E82F7"/>
            <stop offset="0.9999" stop-color="#21FFB1"/>
            <stop offset="1" stop-color="#B74AFF" stop-opacity="0"/>
        </linearGradient>
    </defs>
</svg>
