<svg width="16" height="16" viewBox="0 0 16 16" fill="none" xmlns="http://www.w3.org/2000/svg">
<g clip-path="url(#clip0_87_7723)">
<path d="M1.78362 1.78865C2.17415 1.39815 2.80732 1.39813 3.19783 1.78865L7.75927 6.35008C7.88944 6.48026 8.1005 6.48026 8.23067 6.35008L12.7928 1.78796C13.1832 1.39751 13.8165 1.39766 14.207 1.78796C14.5975 2.17848 14.5975 2.81165 14.207 3.20217L9.64489 7.7643C9.51471 7.89447 9.51471 8.10553 9.64489 8.2357L14.207 12.7978L14.2761 12.8738C14.5964 13.2666 14.5731 13.8459 14.207 14.212C13.8409 14.5782 13.2615 14.6014 12.8688 14.2811L12.7928 14.212L8.23067 9.64992C8.1005 9.51974 7.88944 9.51974 7.75927 9.64992L3.19783 14.2114L3.12187 14.2804C2.7291 14.6006 2.14968 14.5774 1.78362 14.2114C1.41777 13.8453 1.3944 13.2658 1.71457 12.8731L1.78362 12.7971L6.34506 8.2357C6.47523 8.10553 6.47523 7.89447 6.34506 7.7643L1.78362 3.20286C1.39309 2.81234 1.39309 2.17917 1.78362 1.78865Z" fill="white"/>
</g>
<defs>
<clipPath id="clip0_87_7723">
<rect width="16" height="16" fill="white"/>
</clipPath>
</defs>
</svg>
