<svg width="16" height="16" viewBox="0 0 16 16" fill="none" xmlns="http://www.w3.org/2000/svg">
<path d="M9.66699 4.66699C9.86719 4.66703 10.0585 4.7038 10.2363 4.76855C10.2579 4.7764 10.2797 4.7833 10.3008 4.79199C10.326 4.80239 10.3504 4.81459 10.375 4.82617C10.3957 4.83593 10.4163 4.84587 10.4365 4.85645C10.4715 4.87473 10.5056 4.8944 10.5391 4.91504C10.5461 4.91941 10.5535 4.92326 10.5605 4.92773C10.5947 4.94953 10.6277 4.97291 10.6602 4.99707C10.6706 5.00485 10.6811 5.01249 10.6914 5.02051C10.7168 5.04033 10.7415 5.06081 10.7656 5.08203C10.7835 5.09771 10.8002 5.11445 10.8174 5.13086C10.8367 5.14935 10.8556 5.16811 10.874 5.1875C10.8885 5.20271 10.9031 5.21765 10.917 5.2334C10.9396 5.25909 10.9614 5.28544 10.9824 5.3125C10.9924 5.32535 11.0021 5.33841 11.0117 5.35156C11.0312 5.37824 11.0495 5.40574 11.0674 5.43359C11.0798 5.45289 11.0919 5.47236 11.1035 5.49219C11.1169 5.51506 11.1302 5.53797 11.1426 5.56152C11.1538 5.58292 11.1635 5.60503 11.1738 5.62695C11.1874 5.65595 11.2009 5.68496 11.2129 5.71484C11.2148 5.71973 11.2168 5.72459 11.2188 5.72949C11.2917 5.9168 11.333 6.11992 11.333 6.33301V12.333C11.333 13.2534 10.5873 13.9998 9.66699 14H3.66699C2.74652 14 2 13.2535 2 12.333V6.33301C2.00018 5.41268 2.74663 4.66699 3.66699 4.66699H9.66699ZM12.334 2C13.2542 2.00035 14 2.74673 14 3.66699V9.66699C13.9999 10.3297 13.613 10.9019 13.0528 11.1704C12.8627 11.2615 12.667 11.1027 12.667 10.8919V6.33398C12.667 4.67735 11.3235 3.33434 9.66699 3.33398H5.10886C4.89816 3.33398 4.73939 3.13839 4.8303 2.94831C5.09853 2.38749 5.67082 2 6.33398 2H12.334Z" fill="#8E8E8E"/>
</svg>
