<svg width="25" height="24" viewBox="0 0 25 24" fill="none" xmlns="http://www.w3.org/2000/svg">
<path d="M19.5 2C20.6046 2 21.5 2.89543 21.5 4V20C21.5 21.1046 20.6046 22 19.5 22H5.5C4.39543 22 3.5 21.1046 3.5 20V4C3.5 2.89543 4.39543 2 5.5 2H19.5ZM12.5 8.20312C9.29897 8.20312 6.59816 10.7903 5.75293 11.6934C5.5888 11.8687 5.5888 12.1313 5.75293 12.3066C6.59816 13.2097 9.29897 15.7969 12.5 15.7969C15.701 15.7969 18.4019 13.2096 19.2471 12.3066C19.4112 12.1313 19.4112 11.8687 19.2471 11.6934C18.4019 10.7904 15.701 8.20314 12.5 8.20312ZM10.665 10.9404C11.3406 9.77038 12.7104 9.29588 13.7236 9.88086C14.7368 10.4659 15.0105 11.8895 14.335 13.0596C13.6594 14.2296 12.2896 14.7041 11.2764 14.1191C10.2632 13.5341 9.98948 12.1105 10.665 10.9404Z" fill="white"/>
</svg>
