<svg width="16" height="16" viewBox="0 0 16 16" fill="none" xmlns="http://www.w3.org/2000/svg">
<path d="M10.9071 3.64658C11.6885 3.64651 12.3222 4.28006 12.322 5.06148L12.3213 9.62798C12.3211 10.042 11.9855 10.3779 11.5714 10.3779C11.1573 10.3777 10.8221 10.0414 10.8222 9.62729L10.8228 6.60834C10.8228 6.46029 10.6438 6.38612 10.5392 6.49081L5.17224 11.8577L5.11562 11.9088C4.82112 12.1492 4.38624 12.1321 4.11158 11.8577C3.83694 11.5831 3.82007 11.1483 4.06048 10.8537L4.11158 10.7971L9.47849 5.43015C9.58318 5.32546 9.50901 5.14647 9.36096 5.1465L6.34201 5.14711C5.92787 5.14719 5.5916 4.81199 5.5914 4.39788C5.59132 3.98373 5.92719 3.64814 6.34132 3.64796L10.9071 3.64658Z" fill="#8E8E8E"/>
</svg>
