<svg width="25" height="24" viewBox="0 0 25 24" fill="none" xmlns="http://www.w3.org/2000/svg">
<g id="Lock" clip-path="url(#clip0_959_9593)">
<path id="Subtract" d="M12.5 2C15.8137 2 18.5 4.68629 18.5 8V9.60547C19.6411 9.8371 20.5 10.8462 20.5 12.0557V19.5C20.5 20.8807 19.3807 22 18 22H7C5.61929 22 4.50001 20.8807 4.5 19.5V12.0557C4.5 10.8462 5.35887 9.8371 6.5 9.60547V8C6.5 4.68629 9.18629 2 12.5 2ZM13.5322 13.9893C12.6769 13.4955 11.5214 13.8961 10.9512 14.8838C10.381 15.8715 10.6117 17.0725 11.4668 17.5664C12.3221 18.0602 13.4785 17.6596 14.0488 16.6719C14.619 15.6842 14.3875 14.4831 13.5322 13.9893ZM12.5 4C10.2909 4 8.5 5.79086 8.5 8V9.55566H16.5V8C16.5 5.79086 14.7091 4 12.5 4Z" fill="white"/>
</g>
<defs>
<clipPath id="clip0_959_9593">
<rect width="24" height="24" fill="white" transform="translate(0.5)"/>
</clipPath>
</defs>
</svg>
