<svg width="17" height="16" viewBox="0 0 17 16" fill="none" xmlns="http://www.w3.org/2000/svg">
<g clip-path="url(#clip0_67_8788)">
<g clip-path="url(#clip1_67_8788)">
<g clip-path="url(#clip2_67_8788)">
<path d="M8.49966 1.33325C10.7087 1.33325 12.4995 3.12426 12.4997 5.33325V6.40356C13.2606 6.55785 13.8336 7.23091 13.8336 8.03735V13.0002C13.8336 13.9206 13.0871 14.6663 12.1667 14.6663H4.83365C3.91323 14.6663 3.16675 13.9206 3.16666 13.0002V8.03735C3.16666 7.23113 3.73906 6.5581 4.49966 6.40356V5.33325C4.49984 3.12437 6.29079 1.33343 8.49966 1.33325ZM9.18814 9.32642C8.61801 8.99725 7.84768 9.26383 7.46744 9.92212C7.08726 10.5806 7.24101 11.3819 7.81119 11.7112C8.3814 12.0404 9.1517 11.773 9.53189 11.1145C9.91207 10.456 9.75833 9.65565 9.18814 9.32642ZM8.49966 2.66724C7.02717 2.66742 5.83382 3.86075 5.83365 5.33325V6.37036H11.1667V5.33325C11.1665 3.86064 9.97232 2.66724 8.49966 2.66724Z" fill="white"/>
</g>
</g>
</g>
<defs>
<clipPath id="clip0_67_8788">
<rect width="16" height="16" fill="white" transform="translate(0.5)"/>
</clipPath>
<clipPath id="clip1_67_8788">
<rect width="16" height="16" fill="white" transform="translate(0.5)"/>
</clipPath>
<clipPath id="clip2_67_8788">
<rect width="16" height="16" fill="white" transform="translate(0.5)"/>
</clipPath>
</defs>
</svg>
