<svg width="93" height="26" viewBox="0 0 93 26" fill="none" xmlns="http://www.w3.org/2000/svg">
<path d="M11.7749 0.0551758C18.147 0.0551758 23.311 5.22301 23.311 11.5952V11.7329L23.2954 11.8696L22.7241 17.0483C22.5162 18.9301 21.5362 20.6415 20.0181 21.7729L16.5767 24.3384C15.177 25.3814 13.4775 25.9448 11.7319 25.9448C9.98138 25.9448 8.2781 25.3739 6.88135 24.3188L3.0083 21.3931C1.98853 20.6227 1.06139 19.4577 0.757324 17.9204C0.505558 16.6467 0.238811 14.5905 0.23877 11.5952C0.23877 5.22306 5.40287 0.0552557 11.7749 0.0551758ZM69.7554 8.29736C70.7139 8.29736 71.6187 8.45272 72.4692 8.76318C73.3266 9.06698 74.0829 9.5398 74.7378 10.1812C75.3993 10.8225 75.9193 11.639 76.2974 12.6313C76.6754 13.617 76.8647 14.7921 76.8647 16.1558V17.2798H66.0308C66.0416 18.1452 66.2055 18.891 66.5249 19.5171C66.8557 20.1584 67.3186 20.6513 67.9126 20.9956C68.5066 21.3331 69.202 21.5024 69.9985 21.5024C70.5318 21.5024 71.0148 21.4283 71.4468 21.2798C71.8788 21.1245 72.2535 20.8981 72.5708 20.6011C72.888 20.3041 73.1275 19.9362 73.2896 19.4976L76.7124 19.8823C76.4964 20.7868 76.0846 21.5764 75.4771 22.2515C74.8762 22.9198 74.1068 23.4397 73.1685 23.811C72.2301 24.1756 71.1562 24.3579 69.9478 24.3579C68.3885 24.3579 67.0417 24.0342 65.9077 23.3862C64.7803 22.7314 63.9128 21.8058 63.3052 20.6108C62.6977 19.4092 62.394 17.9946 62.394 16.3677C62.3941 14.768 62.6977 13.364 63.3052 12.1558C63.9195 10.9406 64.777 9.99493 65.8774 9.31982C66.9777 8.63812 68.2704 8.29742 69.7554 8.29736ZM48.188 24.0542H44.1782L38.6392 7.56787H38.4771L32.9478 24.0542H28.938L30.5825 19.3833H28.2388V16.0542H31.7544L36.2388 3.31494H40.8765L48.188 24.0542ZM53.5679 24.0542H49.9019V3.31494H53.5679V24.0542ZM60.1479 24.0542H56.4819V8.49951H60.1479V24.0542ZM87.4341 8.29736C88.5075 8.29736 89.4431 8.52677 90.2397 8.98584C91.043 9.44491 91.6642 10.1102 92.103 10.981C92.5485 11.8518 92.768 12.9088 92.7612 14.1509V24.0542H89.0952V14.7173C89.0952 13.6777 88.8247 12.8642 88.2847 12.2769C87.7514 11.6897 87.0119 11.396 86.0669 11.396C85.4257 11.3961 84.8554 11.5383 84.356 11.8218C83.8632 12.0986 83.4744 12.5003 83.1909 13.0269C82.9144 13.5532 82.7759 14.191 82.7759 14.9399V24.0542H79.1108V8.49951H82.6138V11.1431H82.7964C83.1541 10.2723 83.7244 9.57995 84.5073 9.06689C85.2971 8.55386 86.273 8.29741 87.4341 8.29736ZM11.7749 2.55811C6.78602 2.55819 2.7417 6.60432 2.7417 11.5952L2.75342 12.6187C2.80489 14.9028 3.02211 16.4724 3.2124 17.4351C3.37071 18.2351 3.86552 18.9045 4.51611 19.396L8.39014 22.3218C9.29248 23.0033 10.3802 23.3922 11.5063 23.438L11.7319 23.4429C12.9385 23.4428 14.113 23.0526 15.0806 22.3315L18.5229 19.7661C19.4241 19.0944 20.0263 18.0995 20.2065 16.9956L20.2368 16.7739L20.8081 11.5952C20.8081 6.60427 16.7638 2.55811 11.7749 2.55811ZM5.00732 10.3491C6.33833 9.58036 8.52463 10.8747 9.89014 13.2407C11.2556 15.6067 11.2835 18.1486 9.95264 18.9175C8.62161 19.6863 6.43533 18.391 5.06982 16.0249C3.70441 13.6589 3.67645 11.118 5.00732 10.3491ZM13.8003 13.2407C15.1658 10.8747 17.3521 9.58036 18.6831 10.3491C20.014 11.118 19.986 13.6589 18.6206 16.0249C17.2551 18.391 15.0688 19.6863 13.7378 18.9175C12.4069 18.1486 12.4348 15.6067 13.8003 13.2407ZM69.8062 11.1528C69.0569 11.1529 68.3986 11.3352 67.8315 11.6997C67.2645 12.0575 66.8227 12.5304 66.5054 13.1177C66.2282 13.6358 66.0728 14.1996 66.0376 14.8091H73.3511C73.3443 14.107 73.1921 13.4819 72.895 12.9351C72.598 12.3815 72.1822 11.9467 71.6489 11.6294C71.1224 11.3122 70.5082 11.1528 69.8062 11.1528ZM60.1489 6.72412H56.479V3.0542H60.1489V6.72412Z" fill="#4D4D4D"/>
</svg>
