<svg width="30" height="34" viewBox="0 0 30 34" fill="none" xmlns="http://www.w3.org/2000/svg">
<path d="M15.0004 0.87793C22.8232 0.878002 29.1681 7.31069 29.1682 15.2496V15.4213L29.1498 15.592L28.4475 22.0415C28.2001 24.3131 27.0623 26.3849 25.2963 27.7929L25.1233 27.9269L20.8952 31.1219C19.1763 32.4206 17.0901 33.122 14.9472 33.122C12.8654 33.122 10.838 32.455 9.15389 31.2191L8.99244 31.0974L4.23406 27.4535C3.0209 26.5243 1.91393 25.1338 1.50635 23.3062L1.46913 23.1281C1.1598 21.5415 0.832532 18.9805 0.83252 15.2496C0.832636 7.31067 7.17755 0.877974 15.0004 0.87793ZM15.0004 3.995C8.87202 3.99504 3.90403 9.03387 3.90391 15.2496L3.90729 15.9006C3.94244 19.0863 4.23155 21.2385 4.48203 22.5233C4.67646 23.5198 5.2846 24.3531 6.08395 24.9653L10.8423 28.6093C11.9507 29.4581 13.2868 29.9419 14.6702 29.999L14.9472 30.0049C16.3368 30.0049 17.6921 29.5787 18.8355 28.7854L19.0612 28.6215L23.2893 25.4269C24.3966 24.5903 25.1358 23.3512 25.3572 21.9763L25.3949 21.6991L26.0968 15.2496C26.0967 9.13106 21.2829 4.15266 15.287 3.99843L15.0004 3.995ZM6.68672 13.6984C8.32176 12.741 11.0071 14.3534 12.6845 17.3002C14.3619 20.2469 14.3959 23.4118 12.7609 24.3693C11.1258 25.3266 8.44095 23.7142 6.76358 20.7675C5.08621 17.8208 5.05176 14.6559 6.68672 13.6984ZM17.4883 17.3002C19.1657 14.3534 21.8511 12.741 23.4861 13.6984C25.1209 14.656 25.0866 17.8208 23.4092 20.7675C21.7318 23.7142 19.0465 25.3267 17.4115 24.3693C15.7766 23.4117 15.811 20.2468 17.4883 17.3002Z" fill="url(#paint0_linear_173_137)"/>
<defs>
<linearGradient id="paint0_linear_173_137" x1="15.0004" y1="0.87793" x2="15.0004" y2="33.122" gradientUnits="userSpaceOnUse">
<stop stop-color="#2E82F7"/>
<stop offset="1" stop-color="#7CFEC7"/>
</linearGradient>
</defs>
</svg>
