<svg width="15" height="16" viewBox="0 0 15 16" fill="none" xmlns="http://www.w3.org/2000/svg">
<path d="M7.12988 0C11.0677 0.00023331 14.2588 3.1939 14.2588 7.13184V7.2168L14.249 7.30176L13.8965 10.502C13.768 11.6649 13.1619 12.7227 12.2236 13.4219L10.0967 15.0068C9.23168 15.6514 8.1813 16 7.10254 16C6.02086 15.9999 4.96856 15.647 4.10547 14.9951L1.71191 13.1875C1.0817 12.7114 0.508242 11.991 0.320312 11.041C0.164718 10.2539 2.53906e-05 8.98294 0 7.13184C1.59727e-05 3.19379 3.19191 4.93921e-05 7.12988 0ZM7.12988 1.54688C4.04671 1.54692 1.54689 4.04742 1.54688 7.13184L1.55371 7.76465C1.58553 9.17614 1.7203 10.1463 1.83789 10.7412C1.93579 11.2355 2.24156 11.6494 2.64355 11.9531L5.03809 13.7607C5.59571 14.1819 6.26795 14.4228 6.96387 14.4512L7.10254 14.4541C7.84819 14.4541 8.57486 14.2122 9.17285 13.7666L11.2998 12.1816C11.8566 11.7666 12.2284 11.1518 12.3398 10.4697L12.3594 10.332L12.7119 7.13184C12.7119 4.04754 10.2129 1.54711 7.12988 1.54688ZM2.94727 6.36133C3.76984 5.88671 5.12107 6.68657 5.96484 8.14844C6.80871 9.61065 6.82544 11.1821 6.00293 11.6572C5.18031 12.132 3.82914 11.3312 2.98535 9.86914C2.14172 8.40705 2.12484 6.83645 2.94727 6.36133ZM8.38086 8.14844C9.22461 6.68659 10.5758 5.8868 11.3984 6.36133C12.2209 6.83646 12.204 8.40704 11.3604 9.86914C10.5165 11.3313 9.16538 12.1321 8.34277 11.6572C7.52026 11.1821 7.53699 9.61065 8.38086 8.14844Z" fill="white"/>
</svg>
