<svg width="58" height="16" viewBox="0 0 58 16" fill="none" xmlns="http://www.w3.org/2000/svg">
<path d="M7.12988 0C11.0677 0.000233216 14.2588 3.1939 14.2588 7.13184V7.2168L14.249 7.30176L13.8965 10.502C13.768 11.6649 13.1619 12.7227 12.2236 13.4219L10.0967 15.0068C9.23168 15.6514 8.1813 16 7.10254 16C6.02086 15.9999 4.96856 15.647 4.10547 14.9951L1.71191 13.1875C1.0817 12.7114 0.508242 11.991 0.320312 11.041C0.164718 10.2539 2.53906e-05 8.98294 0 7.13184C1.60004e-05 3.19379 3.19191 4.93921e-05 7.12988 0ZM42.9619 5.09375C43.5543 5.09375 44.114 5.18997 44.6396 5.38184C45.1693 5.56957 45.6365 5.86165 46.041 6.25781C46.4499 6.65415 46.7712 7.1592 47.0049 7.77246C47.2385 8.38153 47.3555 9.10755 47.3555 9.9502V10.6445H40.6602C40.6668 11.1793 40.7685 11.6405 40.9658 12.0273C41.1702 12.4237 41.4562 12.7286 41.8232 12.9414C42.1903 13.15 42.6201 13.2549 43.1123 13.2549C43.4417 13.2549 43.74 13.2088 44.0068 13.1172C44.2738 13.0212 44.5061 12.8808 44.7021 12.6973C44.8981 12.5138 45.0464 12.2866 45.1465 12.0156L47.2617 12.2529C47.1282 12.8119 46.8735 13.3006 46.498 13.7178C46.1268 14.1307 45.6511 14.4522 45.0713 14.6816C44.4914 14.9069 43.8278 15.0195 43.0811 15.0195C42.1174 15.0195 41.2848 14.8194 40.584 14.4189C39.8873 14.0143 39.3511 13.4424 38.9756 12.7041C38.6001 11.9615 38.4131 11.0865 38.4131 10.0811C38.4132 9.09261 38.6003 8.22513 38.9756 7.47852C39.3553 6.72752 39.8854 6.14281 40.5654 5.72559C41.2454 5.30432 42.0442 5.0938 42.9619 5.09375ZM29.6328 14.832H27.1553L23.7314 4.64258H23.6318L20.2148 14.832H17.7363L18.7529 11.9453H17.3047V9.8877H19.4766L22.248 2.01465H25.1143L29.6328 14.832ZM32.958 14.832H30.6924V2.01465H32.958V14.832ZM37.0244 14.832H34.7588V5.21875H37.0244V14.832ZM53.8877 5.09375C54.5509 5.09376 55.1288 5.23592 55.6211 5.51953C56.1175 5.80322 56.5023 6.21383 56.7734 6.75195C57.0487 7.29006 57.1838 7.94347 57.1797 8.71094V14.832H54.9141V9.06152C54.914 8.41907 54.7468 7.91569 54.4131 7.55273C54.0836 7.19013 53.6267 7.00885 53.043 7.00879C52.6468 7.00883 52.294 7.09637 51.9854 7.27148C51.6809 7.44251 51.4408 7.69128 51.2656 8.0166C51.0947 8.34192 51.0088 8.73636 51.0088 9.19922V14.832H48.7441V5.21875H50.9082V6.85254H51.0215C51.2426 6.3144 51.5952 5.88641 52.0791 5.56934C52.5672 5.25235 53.1702 5.09378 53.8877 5.09375ZM7.12988 1.54688C4.04671 1.54692 1.54689 4.04742 1.54688 7.13184L1.55371 7.76465C1.58553 9.17614 1.7203 10.1463 1.83789 10.7412C1.93579 11.2355 2.24156 11.6494 2.64355 11.9531L5.03809 13.7607C5.59571 14.1819 6.26795 14.4228 6.96387 14.4512L7.10254 14.4541C7.84819 14.4541 8.57486 14.2122 9.17285 13.7666L11.2998 12.1816C11.8566 11.7666 12.2284 11.1518 12.3398 10.4697L12.3594 10.332L12.7119 7.13184C12.7119 4.04754 10.2129 1.54711 7.12988 1.54688ZM2.94727 6.36133C3.76984 5.88671 5.12107 6.68657 5.96484 8.14844C6.80871 9.61065 6.82544 11.1821 6.00293 11.6572C5.18031 12.132 3.82914 11.3312 2.98535 9.86914C2.14172 8.40705 2.12484 6.83645 2.94727 6.36133ZM8.38086 8.14844C9.22461 6.68659 10.5758 5.8868 11.3984 6.36133C12.2209 6.83646 12.204 8.40704 11.3604 9.86914C10.5165 11.3313 9.16538 12.1321 8.34277 11.6572C7.52026 11.1821 7.53699 9.61065 8.38086 8.14844ZM42.9932 6.8584C42.5303 6.85845 42.1237 6.97119 41.7734 7.19629C41.423 7.41741 41.1492 7.71027 40.9531 8.07324C40.782 8.39331 40.6858 8.74167 40.6641 9.11816H45.1846C45.1804 8.68428 45.0859 8.2979 44.9023 7.95996C44.7188 7.61787 44.4614 7.3494 44.1318 7.15332C43.8065 6.95732 43.427 6.8584 42.9932 6.8584ZM37.0254 4.12109H34.7568V1.85352H37.0254V4.12109Z" fill="white"/>
</svg>
