<svg width="17" height="16" viewBox="0 0 17 16" fill="none" xmlns="http://www.w3.org/2000/svg">
<path d="M3.53809 0.696353C3.95151 0.718365 4.26982 1.07093 4.24805 1.48444L4.17228 2.90651C4.16432 3.05605 4.34476 3.14203 4.46085 3.04743C5.56192 2.15024 6.96965 1.61237 8.50098 1.61237C12.0326 1.61274 14.8955 4.47602 14.8955 8.00788C14.8952 11.5395 12.0325 14.403 8.50098 14.4034C4.96915 14.4034 2.10574 11.5397 2.10547 8.00788C2.10547 7.59366 2.44126 7.25788 2.85547 7.25788C3.26952 7.25807 3.60547 7.59378 3.60547 8.00788C3.60574 10.7114 5.79766 12.9034 8.50098 12.9034C11.204 12.903 13.3952 10.7111 13.3955 8.00788C13.3955 5.30437 11.2041 3.11274 8.50098 3.11237C7.40066 3.11237 6.38574 3.4751 5.568 4.08821C5.44265 4.18219 5.51815 4.36938 5.6746 4.36109L7.05176 4.28815C7.46497 4.26658 7.81764 4.584 7.83984 4.99713C7.8614 5.41049 7.54417 5.76325 7.13086 5.78522L3.92773 5.95416C3.16817 5.99376 2.54139 5.3671 2.58105 4.60749L2.75 1.40436C2.77218 0.991223 3.12488 0.674784 3.53809 0.696353ZM4.82031 4.40631L4.46582 4.05866L4.12891 3.72956L4.82031 4.40631Z" fill="white"/>
</svg>
