<svg width="24" height="24" viewBox="0 0 24 24" fill="none" xmlns="http://www.w3.org/2000/svg">
<path d="M12.4868 2.55518C17.489 2.80887 21.467 6.94493 21.4673 12.0103C21.4673 17.2393 17.2284 21.4789 11.9995 21.479C6.77077 21.4788 2.53174 17.2392 2.53174 12.0103C2.53208 11.4584 2.97988 11.0105 3.53174 11.0103C4.08376 11.0103 4.53139 11.4583 4.53174 12.0103C4.53174 16.1347 7.87544 19.4788 11.9995 19.479C16.1237 19.4789 19.4673 16.1348 19.4673 12.0103C19.467 8.01468 16.329 4.75207 12.3833 4.55225L11.9995 4.54248L11.897 4.5376C11.3931 4.48606 10.9995 4.06001 10.9995 3.54248C10.9996 2.99044 11.4475 2.54273 11.9995 2.54248L12.4868 2.55518Z" fill="white"/>
</svg>
