<svg width="57" height="56" viewBox="0 0 57 56" fill="none" xmlns="http://www.w3.org/2000/svg">
<g filter="url(#filter0_i_60_2275)">
<path d="M28.4995 4.66675C41.3861 4.66675 51.8324 15.1132 51.8325 27.9998C51.8325 40.8864 41.3862 51.3337 28.4995 51.3337C15.613 51.3336 5.1665 40.8863 5.1665 27.9998C5.16664 15.1133 15.6131 4.66688 28.4995 4.66675ZM40.854 21.1667C40.0818 20.3772 38.8156 20.3635 38.0259 21.1355L26.2866 32.614L20.6528 26.9802C19.8719 26.1994 18.6058 26.1996 17.8247 26.9802C17.0437 27.7612 17.0438 29.0273 17.8247 29.8083L23.6343 35.6189C25.0871 37.0715 27.4387 37.0845 28.9077 35.6482L40.8228 23.9949C41.612 23.2225 41.6262 21.9563 40.854 21.1667Z" fill="url(#paint0_radial_60_2275)"/>
</g>
<defs>
<filter id="filter0_i_60_2275" x="5.1665" y="4.66675" width="46.666" height="46.667" filterUnits="userSpaceOnUse" color-interpolation-filters="sRGB">
<feFlood flood-opacity="0" result="BackgroundImageFix"/>
<feBlend mode="normal" in="SourceGraphic" in2="BackgroundImageFix" result="shape"/>
<feColorMatrix in="SourceAlpha" type="matrix" values="0 0 0 0 0 0 0 0 0 0 0 0 0 0 0 0 0 0 127 0" result="hardAlpha"/>
<feOffset/>
<feGaussianBlur stdDeviation="1.75"/>
<feComposite in2="hardAlpha" operator="arithmetic" k2="-1" k3="1"/>
<feColorMatrix type="matrix" values="0 0 0 0 0.133333 0 0 0 0 0.796078 0 0 0 0 0.345098 0 0 0 1 0"/>
<feBlend mode="normal" in2="shape" result="effect1_innerShadow_60_2275"/>
</filter>
<radialGradient id="paint0_radial_60_2275" cx="0" cy="0" r="1" gradientUnits="userSpaceOnUse" gradientTransform="translate(31 30) rotate(91.6669) scale(130.217 130.38)">
<stop stop-color="#22CB58" stop-opacity="0"/>
<stop offset="1" stop-color="#22CB58"/>
</radialGradient>
</defs>
</svg>
