<svg width="16" height="16" viewBox="0 0 16 16" fill="none" xmlns="http://www.w3.org/2000/svg">
<path d="M8.00049 1.00024C11.8663 1.00044 15.0005 4.13437 15.0005 8.00024C15.0003 11.866 11.8662 15 8.00049 15.0002C4.13472 15.0001 1.00066 11.866 1.00049 8.00024C1.00049 4.13433 4.13461 1.00038 8.00049 1.00024ZM11.6577 5.9231C11.3681 5.62701 10.8933 5.62187 10.5972 5.91138L7.36865 9.06665L5.88428 7.58228C5.59144 7.2897 5.11656 7.2897 4.82373 7.58228C4.54934 7.8568 4.53194 8.29165 4.77197 8.58618L4.82373 8.6438L6.48389 10.303C6.96818 10.7871 7.75206 10.7915 8.2417 10.3127L11.646 6.98364C11.9419 6.69408 11.947 6.21918 11.6577 5.9231Z" fill="white"/>
</svg>
